<svg id="Group_5" data-name="Group 5" xmlns="http://www.w3.org/2000/svg" xmlns:xlink="http://www.w3.org/1999/xlink" width="79" height="55" viewBox="0 0 79 55">
  <defs>
    <clipPath id="clip-path">
      <rect id="Rectangle_9" data-name="Rectangle 9" width="79" height="55" fill="#a17c68"/>
    </clipPath>
  </defs>
  <g id="Group_3" data-name="Group 3" clip-path="url(#clip-path)">
    <path id="Path_1" data-name="Path 1" d="M71.887,43.871V27.708H67.269V41.562h-4.85a11.58,11.58,0,0,0-9-9V23.09H48.8V16.163a2.312,2.312,0,0,1,2.309-2.309V9.236a6.935,6.935,0,0,0-6.927,6.927V23.09H39.253V6.927A6.935,6.935,0,0,0,32.326,0H13.854V23.09H9.236v9.468a11.546,11.546,0,0,0,2.309,22.858H51.106A11.565,11.565,0,0,0,62.419,46.18H67.5a11.565,11.565,0,0,0,11.313,9.236V50.8a6.935,6.935,0,0,1-6.927-6.927M32.326,4.618a2.312,2.312,0,0,1,2.309,2.309V23.09H27.708V13.854H18.472V4.618ZM18.472,18.472H23.09V23.09H18.472ZM48.8,32.326H13.854V27.708H48.8ZM51.106,50.8H11.545a6.927,6.927,0,0,1,0-13.854H51.106a6.927,6.927,0,0,1,0,13.854" fill="#a17c68"/>
    <rect id="Rectangle_4" data-name="Rectangle 4" width="4.618" height="4.618" transform="translate(10.544 41.562)" fill="#a17c68"/>
    <rect id="Rectangle_5" data-name="Rectangle 5" width="4.618" height="4.618" transform="translate(19.78 41.562)" fill="#a17c68"/>
    <rect id="Rectangle_6" data-name="Rectangle 6" width="4.618" height="4.618" transform="translate(29.016 41.562)" fill="#a17c68"/>
    <rect id="Rectangle_7" data-name="Rectangle 7" width="4.618" height="4.618" transform="translate(38.252 41.562)" fill="#a17c68"/>
    <rect id="Rectangle_8" data-name="Rectangle 8" width="4.618" height="4.618" transform="translate(47.488 41.562)" fill="#a17c68"/>
  </g>
</svg>
