<svg xmlns="http://www.w3.org/2000/svg" xmlns:xlink="http://www.w3.org/1999/xlink" width="53" height="53" viewBox="0 0 53 53">
  <defs>
    <clipPath id="clip-path">
      <rect id="Rectangle_23" data-name="Rectangle 23" width="27" height="27" transform="translate(0 0)" fill="#fff"/>
    </clipPath>
  </defs>
  <g id="Group_20" data-name="Group 20" transform="translate(-666 -1083)">
    <g id="Group_16" data-name="Group 16" transform="translate(679 1096)">
      <g id="Group_15" data-name="Group 15" transform="translate(0 0)" clip-path="url(#clip-path)">
        <path id="Path_15" data-name="Path 15" d="M21.992,2.689V2.373a2.373,2.373,0,0,0-4.746,0v.316H9.754V2.373a2.373,2.373,0,0,0-4.746,0v.316H0V27H27V2.689Zm-3.164-.316a.791.791,0,0,1,1.582,0V4.024a.791.791,0,0,1-1.582,0Zm-12.238,0a.791.791,0,0,1,1.582,0V4.024a.791.791,0,0,1-1.582,0Zm-1.569,1.9a2.373,2.373,0,0,0,4.72,0h7.518a2.373,2.373,0,0,0,4.72,0h3.439V7.945H1.582V4.271ZM1.582,9.527H25.418V25.418H1.582Z" transform="translate(0 0)" fill="#fff"/>
        <path id="Path_16" data-name="Path 16" d="M142.537,211.815a6.317,6.317,0,1,0,6.317,6.317,6.324,6.324,0,0,0-6.317-6.317m0,11.051a4.735,4.735,0,1,1,4.734-4.735,4.74,4.74,0,0,1-4.734,4.735" transform="translate(-129.036 -200.645)" fill="#fff"/>
        <path id="Path_17" data-name="Path 17" d="M196.683,291.85l-1.483-1.483-1.119,1.119,2.6,2.6,3.929-3.929-1.119-1.119Z" transform="translate(-183.847 -273.798)" fill="#fff"/>
      </g>
    </g>
  </g>
</svg>
