<svg xmlns="http://www.w3.org/2000/svg" xmlns:xlink="http://www.w3.org/1999/xlink" width="53" height="53" viewBox="0 0 53 53">
  <defs>
    <clipPath id="clip-path">
      <rect id="Rectangle_13" data-name="Rectangle 13" width="31" height="27" fill="#fff"/>
    </clipPath>
  </defs>
  <g id="Group_18" data-name="Group 18" transform="translate(-330 -1083)">
    <g id="Group_7" data-name="Group 7" transform="translate(341 1096)">
      <g id="Group_6" data-name="Group 6" clip-path="url(#clip-path)">
        <path id="Path_2" data-name="Path 2" d="M28.605,0H17.942L14.267,5.513H9.31v7.35h-3.8v-.919A2.76,2.76,0,0,0,2.756,9.188H1.838v1.838h.919a.92.92,0,0,1,.919.919v.919H1.838v7.35H5.513v1.838H2.756a2.756,2.756,0,1,0,0,5.513H17.58a2.756,2.756,0,1,0,0-5.513H14.823V20.213H18.5V9.1l2.394-3.591h4.956V13.5L22.6,18.376H20.336v1.838h8.269a2.76,2.76,0,0,0,2.756-2.756V2.756A2.76,2.76,0,0,0,28.605,0m.919,2.756a.919.919,0,1,1-.919-.919.92.92,0,0,1,.919.919M15.742,7.35a.92.92,0,0,1,.919.919V14.7H12.447l-1.3-1.3V7.35ZM18.5,24.807a.92.92,0,0,1-.919.919H2.756a.919.919,0,1,1,0-1.838H17.58a.92.92,0,0,1,.919.919m-5.513-2.756H7.35V20.213h5.635Zm-9.31-3.675V14.7H9.849l1.838,1.838h4.975v1.838Zm16.234-14.7L17.947,6.618A2.764,2.764,0,0,0,16.419,5.6l2.506-3.76h7.081a2.75,2.75,0,0,0,0,1.838Zm9.615,13.782a.92.92,0,0,1-.919.919h-3.8l2.45-3.675h2.265Zm-1.838-4.594V5.355a2.75,2.75,0,0,0,1.838,0v7.508Z" fill="#fff"/>
      </g>
    </g>
  </g>
</svg>
