<svg xmlns="http://www.w3.org/2000/svg" xmlns:xlink="http://www.w3.org/1999/xlink" width="53" height="53" viewBox="0 0 53 53">
  <defs>
    <clipPath id="clip-path">
      <rect id="Rectangle_22" data-name="Rectangle 22" width="31.495" height="24.282" fill="#fff"/>
    </clipPath>
  </defs>
  <g id="Group_21" data-name="Group 21" transform="translate(-1002 -1083)">
    <g id="Group_14" data-name="Group 14" transform="translate(1012.752 1095.359)">
      <g id="Group_13" data-name="Group 13" clip-path="url(#clip-path)">
        <path id="Path_14" data-name="Path 14" d="M29.125,18.093V15.158A13.384,13.384,0,0,0,20.64,2.7l.056-.555,0-.046V0H10.847V2.1l.058.581A13.384,13.384,0,0,0,2.371,15.158v2.935L0,20.464v3.818H31.5V20.464ZM12.692,1.845h6.162v.166l-1.142,11.38H13.835L12.692,2.011ZM4.216,15.158A11.511,11.511,0,0,1,7.64,6.946v3.347H9.486V5.467A11.533,11.533,0,0,1,11.1,4.6l1.068,10.636h7.217L20.447,4.623a11.532,11.532,0,0,1,1.563.843v4.826h1.845V6.944a11.507,11.507,0,0,1,3.424,8.214v2.9H4.216ZM29.65,22.437H1.845V21.228L3.169,19.9H28.326l1.324,1.324Z" fill="#fff"/>
      </g>
    </g>
  </g>
</svg>
