<?xml version="1.0" encoding="UTF-8"?>
<!DOCTYPE svg PUBLIC "-//W3C//DTD SVG 1.1//EN" "http://www.w3.org/Graphics/SVG/1.1/DTD/svg11.dtd">
<!-- Creator: CorelDRAW 2018 (64-Bit) -->
<svg xmlns="http://www.w3.org/2000/svg" xml:space="preserve" width="180px" height="80px" version="1.1" style="shape-rendering:geometricPrecision; text-rendering:geometricPrecision; image-rendering:optimizeQuality; fill-rule:evenodd; clip-rule:evenodd"
viewBox="0 0 1800000 800000"
 xmlns:xlink="http://www.w3.org/1999/xlink">
 <defs>
  <style type="text/css">
   <![CDATA[
    .fil0 {fill:white}
   ]]>
  </style>
 </defs>
 <g id="Layer_x0020_1">
  <metadata id="CorelCorpID_0Corel-Layer"/>
  <g id="_2014711760240">
   <path class="fil0" d="M974600 484900l-15200 0c1000,-11900 11700,-26300 23000,-32200 6700,-3400 11600,-5400 21900,-5400 9200,0 17400,-600 27200,-600l541200 0c17700,0 27100,1500 37500,9200 8300,6200 17700,18600 17700,29000l-17000 0c-600,-7400 -5400,-12400 -10100,-17200 -12900,-13000 -39000,-11400 -50700,7300 -1500,2400 -3700,6600 -4000,9900l-17600 0c0,-6500 5200,-17900 9300,-22900 1400,-1600 1400,-700 1600,-3200 -172300,0 -344600,0 -517000,0 -24400,0 -29000,0 -42000,13200 -2100,2100 -5800,8900 -5800,12900zm823600 -128500l0 11400 0 700c0,18000 -12600,29700 -29700,29700l-269100 0 0 24200c13400,0 86600,-1100 95900,1100 13900,3300 26100,8400 36100,18500 19300,19400 26300,42900 19500,69500 -3500,14300 -12900,27300 -24300,36300 -12600,10000 -27900,15200 -44200,15200l-578100 0c-38700,0 -70400,-32000 -70400,-70900 0,-6300 2100,-17500 4300,-23000 6300,-15300 11100,-20500 22600,-31400 4700,-4400 10800,-7200 16800,-9800 8200,-3600 18500,-5500 30300,-5500l159400 0 0 -24200 -80600 0c-9000,0 -17600,-2200 -23500,-8700 -2500,-2800 -4700,-6000 -6000,-9700 -3300,-9800 -3500,-30800 2200,-39800 900,-1300 1200,-1400 2200,-2600 8500,-10000 7400,-1500 2000,-24100 -2700,-11800 -4200,-24700 -5400,-37000 -1200,-13100 -1200,-27100 -1200,-40500l1200 -22500c-1700,-700 -3400,-1100 -5300,-2000 -15300,-6900 -37800,-14900 -54700,-21600l-34700 -13800c-1900,-700 -3000,-900 -4900,-1700 -6400,-2900 -13500,-4900 -19900,-7400 -11800,-4800 -24000,-8700 -36600,-11900 -17200,-4300 -37600,-7100 -55400,-7000 -16400,0 -34000,1900 -49900,5300 -7900,1700 -15100,3300 -22200,5700l-41600 13400c-2300,800 -3100,1400 -5400,2000l-10300 3000c-2500,700 -2600,900 -4900,1700 -19200,6800 -57600,17600 -73600,24000 -3300,1400 -7100,1900 -10400,3000 -3400,1100 -6900,2500 -10300,3600 -3600,1200 -6700,2300 -10400,3500 -7100,2400 -13600,4300 -20600,6700 -26400,8800 -52600,16500 -78800,25400l-57100 18700c-2500,800 -2800,1200 -5500,1800 -2800,600 -3100,700 -5200,1500 -10300,3900 -20500,6700 -31000,10200 -3400,1100 -7600,2000 -11900,2000 -9200,0 -16000,2400 -24900,2400 3000,2600 18800,9000 23100,10900l23200 10800c17500,7500 34200,16500 51700,24000l63600 29100c2200,900 3700,1900 5700,2800l103800 47700c17400,7400 34100,16200 51400,23800 12000,5300 29000,14000 40600,18700 2200,900 3600,1600 5400,2500l-16300 -57600c-3100,-9400 -5500,-18900 -8300,-28600 -1500,-5100 -2700,-9000 -4100,-14100l-4100 -14100c-6000,-18600 -11500,-38300 -16700,-57200 -900,-3200 -3100,-12300 -4600,-14300 -3200,-4300 -25900,-25900 -25900,-28600 0,-3400 700,-7300 5500,-7300 2900,0 13200,2700 16500,3500 5200,1300 9900,2700 15300,4000 12900,3200 17000,4300 29600,9900 18300,8100 35800,15900 54100,24000l27300 12100c15600,7300 39300,14900 51600,27300 6400,6400 12300,14300 15800,22900 4500,11100 8800,23900 6500,36700 -300,1400 -600,2600 -900,3900 -2100,10100 -5800,30700 -11200,37900 -10200,13300 -25600,18000 -36500,41700 -4300,9100 -2300,6200 -3500,14600 -900,6200 -1600,11500 -2400,17700 -500,4500 -100,3900 -3000,6700l-10300 9700c-1200,1100 -1500,1100 -2700,2100l-27600 25800c-1700,1700 -4000,2500 -4700,5000l-710900 0c-7300,0 -13500,-300 -20200,2200 -1600,600 -3400,1600 -4800,2500 -3500,2200 -5300,4200 -7900,7200 -8900,10300 -6500,23900 -6500,37800 0,9800 600,18600 600,29100 0,39600 -600,77600 -600,117500 0,4600 300,10100 1200,14000 900,3800 1800,5700 3800,8900 12600,19900 38500,14700 61700,14700 16900,0 33900,0 50900,0 17300,0 32800,-600 50300,-600 67900,0 134200,600 202400,600l1149100 0c19400,0 33800,-12400 38200,-30300l7500 -32500c3300,-15000 7000,-29000 10300,-44200l9100 -38200c4600,-19900 -9400,-21500 -25100,-21500l-607900 0c-11200,100 -8500,3800 -8500,-27800 0,-2400 2000,-1900 4200,-1900l83700 100c171500,0 343100,-700 514600,0 4600,0 6800,-700 10900,-700 4300,0 6000,700 10300,700 8900,-100 12700,600 19700,2700 5300,1600 13600,7100 17000,11400 2300,3000 5200,6200 6800,9600 4500,9500 5000,15000 5000,25300 0,7300 -10000,45500 -11600,51500l-2900 12800c-3500,12700 -5300,25300 -8900,37800 -7700,26100 -5400,39600 -28000,58700 -1900,1600 -2000,2100 -4300,3600 -4800,3200 -9900,6200 -15200,8400 -17100,6900 -44300,4200 -66100,4200 -397200,0 -794300,0 -1191500,0 -41700,0 -82700,600 -124900,600 -20900,0 -40900,-600 -62400,-600 -15100,0 -64900,1100 -77300,-900 -3000,-400 -4100,-200 -6700,-1100 -15100,-5000 -27800,-13700 -36000,-27100 -5400,-8900 -9100,-19200 -9100,-29700l-600 -14600 0 -4500c200,-3700 600,-6800 600,-11200 0,-10500 0,-21000 0,-31500 0,-10700 -600,-19300 -600,-29900l0 -44600c0,-4300 400,-7400 600,-11000 1500,-27700 -5400,-34900 10000,-60200 5800,-9400 15500,-17300 25900,-22000 14100,-6300 27500,-5000 42900,-5000 8500,0 15000,-600 23600,-600l166700 600c127700,0 255400,0 383000,0l0 -1200c-4400,-100 -22400,-5500 -28400,-6800 -7800,-1600 -16100,-4400 -23900,-5800 -2100,-400 -2900,-300 -4700,-800l-65100 -16000c-3500,-800 -6300,-1000 -9600,-1900 -12300,-3100 -25100,-6800 -37500,-9200 -13100,-2600 -24800,-6300 -37800,-8900 -15800,-3100 -30900,-8400 -46800,-11300 -9000,-1700 -18500,-4700 -27700,-6900l-131700 -31300c-5800,-1500 -12600,-3000 -18300,-4700 -3100,-900 -6400,-1200 -9600,-2000l-18900 -4700c-5600,-1400 -12700,-2500 -17800,-5300 -2100,-1200 -4900,-3300 -6600,-4900 -4000,-3800 -7300,-8500 -11200,-12400l-38300 -42900c-5400,-7000 -9700,-14800 -9700,-24800 0,-6100 -1500,-7000 2700,-9400l67800 -40800c8100,-4700 28400,-14700 36800,-14700 6500,0 56500,5300 62700,7000 2300,700 800,800 2500,500 3000,-500 22400,-10400 25900,-12100l131500 -63100c3300,-1600 6400,-2900 9500,-4400l140600 -67300c3100,-1500 6200,-2800 9500,-4400l32700 -15800c1800,-800 2900,-1200 4700,-2000l79800 -38400c17600,-7000 44200,-23100 61800,-27900 23400,-6400 46600,-11500 71500,-11500 32800,0 64400,4800 91700,15600 15500,6100 31000,13200 45000,21600l21900 13900c4500,2600 8100,5300 12600,8100 16200,9800 48900,32000 62100,39000 400,-4100 3000,-9500 4300,-13300 5300,-14300 10600,-28500 21300,-39300 10500,-10400 27200,-17700 42300,-17700l164300 0c6800,0 14300,1300 20700,4000 17300,7400 29800,18200 36800,36000 5000,12600 9500,45600 12900,59900 300,1300 700,3400 1100,4900l2900 15300c700,3700 1300,6600 2100,10100 1700,7500 -600,11700 6400,11700l260700 -100c15600,0 33200,-800 48500,0 7400,400 13500,2600 19800,4500 17200,5000 31000,17300 41200,31400 3500,4800 6200,10400 8400,15900 8100,19900 7000,42100 9000,63700 1100,12500 -1400,31500 -1400,45100 4100,2200 7100,5200 9800,9000 3400,5000 4500,11000 4700,17100zm-698800 -146700c0,-6900 9100,-58500 10800,-65600l7500 -30100c900,-2900 1900,-6600 3100,-9600 3000,-7600 6800,-13300 13000,-18500 10400,-8700 18900,-12000 32900,-12000 10400,0 64200,-900 70100,900 4200,1300 7500,5800 7500,10700l0 125400c0,2500 -2000,5500 -3400,7000 -1900,1900 -4000,3000 -7200,3700l-63400 800c-4200,0 -6000,600 -9700,700l-21800 -100c-7500,0 -23100,2300 -30800,-100 -2200,-700 -2000,-200 -4000,-1400 -4000,-2300 -4600,-5300 -4600,-11800z"/>
   <path class="fil0" d="M818200 746700c-9600,0 -49500,800 -55800,-600l2900 -10500c1900,-8100 7900,-26800 9000,-32800l33400 -126600c700,-3000 1300,-3100 1400,-5900l84200 0c2400,10300 8200,28500 10300,38200l35500 133700c600,1800 2000,4500 -900,4500l-52700 0c-3500,0 -3000,-1300 -3800,-4200l-5100 -20300c-500,-2100 -1300,-5100 -1900,-6500 -1200,-2800 -2600,-2300 -6200,-2400 -5800,-100 -7600,-1300 -15900,-100 -4400,600 -12100,200 -16900,100 -8000,0 -7500,1300 -9300,7700 -1300,4600 -2400,8900 -3400,13500 -800,3500 -2200,12200 -4800,12200zm-114600 -74600c0,2700 4300,7800 5900,10000 2200,3200 4300,5900 6600,9100 2400,3200 4100,6000 6500,9300 8600,11400 18300,26300 26700,37500l5200 7000c400,1000 1300,1700 -1200,1700l-62400 0c-3000,0 -2700,-600 -5400,-600 -200,-2300 -1000,-3200 -1900,-4800 -900,-1600 -1300,-2600 -2200,-4500l-13300 -26700c-900,-1800 -1300,-2700 -2200,-4500l-11100 -22200c-2200,-4800 -3000,-7600 -6900,-7600 -3500,0 -4300,2700 -4300,6000l0 64900c-9000,0 -43400,800 -49700,-600l0 -132200c0,-9900 -1000,-36300 700,-43600 33500,0 67000,0 100600,0 16100,0 18300,800 30300,7300 22600,12200 31500,45700 15400,68700 -3300,4700 -4700,6000 -8900,9900 -2600,2400 -8200,5800 -11600,7300 -5400,2300 -3000,1800 -9500,3100 -3500,700 -7300,1500 -7300,5500zm-118100 -106000l0 185400c0,1500 2100,3700 3600,3700l57600 0c8400,0 6000,-9000 6000,-24300 0,-10300 0,-20600 0,-30900 2000,1500 10000,18600 11700,22200l14400 28700c1200,2500 1200,3700 4300,4200 11300,1700 16800,0 24200,0 2800,0 5600,100 8500,100l103000 0c7700,0 8900,300 11700,-13800l3300 -13600c600,-2200 1000,-6000 3200,-6000l28500 0c2100,0 2200,1500 2700,3400l5100 19100c1600,5800 200,10900 7300,10900l66100 0c7200,0 700,-15200 -800,-21700 -3900,-16700 -10900,-37900 -14300,-54100l-9600 -35900c-700,-2200 -1200,-3400 -1700,-5600l-17600 -66000c-900,-3600 -1400,-10100 -5100,-10100l-92700 0c-3100,0 -3700,5100 -4700,8700l-31500 118800c-2000,7200 -4200,14000 -6000,21300l-5700 22100c-1500,-500 -1300,-900 -2900,-3200 -900,-1300 -1600,-2300 -2500,-3500l-26000 -36500c-2000,-2700 -9600,-12400 -9800,-14900 7000,-1700 7800,-3000 12800,-5400 1700,-800 2400,-1000 3900,-2200l6800 -5300c3700,-3700 8600,-9200 11000,-13800 3200,-6200 3600,-6500 5300,-12900 4600,-17600 2900,-31500 -7000,-47200 -8600,-13800 -27500,-26000 -43100,-26000l-115800 0c-2800,0 -4200,1400 -4200,4300z"/>
   <path class="fil0" d="M115100 653900l0 92800c-9000,0 -43400,800 -49600,-600l0 -175800 70900 0c2300,0 3300,6800 4600,11200 700,2500 1000,3600 1700,6100l21400 73200c900,3100 3500,4700 3800,4700 4800,0 5600,-5000 6900,-8900 1400,-4400 2600,-8100 3500,-12900l20000 -67800c500,-1900 600,-5600 2900,-5600l69100 0 0 174600c0,1400 -400,1800 -1800,1800 -8900,0 -41700,800 -47900,-600l0 -83700c100,-4800 -600,-8900 -4800,-8800 -4000,100 -4500,5100 -5700,8700 -2300,7300 -4200,14000 -6500,21300l-18200 58800c-500,1900 -500,4300 -3000,4300l-26000 0c-4100,0 -4200,-4300 -6100,-10300l-23900 -77400c-3300,-10100 -2100,-11100 -8200,-11100 -2200,0 -3100,3700 -3100,6000zm-58100 -87800l0 184800c0,1700 300,1700 600,3100 1400,700 2600,1200 4800,1200l55800 0c7600,0 6000,-5900 6000,-13400l0 -58200c2000,2300 5000,15200 6100,18200 2200,5800 4000,12100 5800,18400 1900,6400 3800,12500 5600,18700 1000,3100 2100,6200 3100,9100 1100,3400 1200,7200 5500,7200l34500 0c7900,0 6200,-2400 9900,-13200l13600 -43900c600,-1800 2100,-7700 3200,-9000 0,11600 -600,51100 0,60600 300,4400 1900,5500 6700,5500 4500,0 6800,800 11500,600 5400,-300 22300,-1200 27800,-500 3500,300 17200,700 19500,-800 600,-400 1800,-1900 1800,-3000l0 -184200c0,-2500 -700,-5500 -3000,-5500l-80000 0c-3800,0 -7200,15600 -8200,19200l-16800 57700c-500,1900 -800,3800 -2300,5000l-6200 -20600c-2100,-6900 -3800,-13900 -6200,-21000l-4500 -15600c-600,-2300 -1000,-2900 -1700,-5500 -900,-3900 -1800,-6700 -3000,-10300 -1000,-3100 -1600,-8900 -5100,-8900l-81800 0c-2000,0 -3000,2200 -3000,4300z"/>
   <path class="fil0" d="M503000 658200c0,4000 8000,13400 10700,17200l34800 48800c1900,2700 14900,19600 15100,22500 -6100,0 -63700,500 -66900,-300 -2500,-600 -2000,-500 -3000,-2500 -700,-1400 -1100,-2200 -1800,-3700l-26000 -52700c-3900,-7800 -5100,-13600 -10700,-13600 -4700,0 -3100,11100 -3100,15800 0,11800 900,50700 -600,57000 -10800,0 -41200,1200 -49100,-600l0 -175800 47900 0c2800,0 1800,4300 1800,7300l0 47300c0,5800 -700,13500 1200,17500 6500,1600 6300,-900 9300,-6500l27700 -55900c1700,-3200 3200,-6500 4900,-9700l69000 0c-7800,11700 -17100,23800 -24900,35100l-33000 46400c-1300,1700 -3300,3700 -3300,6400zm-109700 -90300l0 181200c0,2700 1200,6100 3700,6100l60000 0c1900,0 3300,-2100 3600,-3700l0 -53300c2400,1600 6200,11200 7700,14100l18400 36800c1500,3000 1700,5400 5500,6000 4100,600 56600,100 65400,100 13300,0 19400,2400 19400,-5500 0,-900 -3100,-4900 -3800,-5900 -1600,-2000 -2500,-3700 -4000,-5700l-32300 -45300c-2800,-3800 -5300,-7400 -8000,-11300l-16200 -22700c700,-2700 12800,-18500 15800,-23000 9600,-14700 26700,-36200 36400,-50900 2200,-3500 12100,-15500 12100,-18800 0,-2100 -1100,-4300 -3100,-4300l-82400 0c-2500,0 -4000,4000 -5000,6000 -4200,8100 -23400,49100 -25900,51000 0,-9500 0,-19000 0,-28500 0,-7900 1500,-22300 -1200,-27900 -6400,-1500 -52200,-600 -62400,-600 -2500,0 -3700,3400 -3700,6100z"/>
   <path class="fil0" d="M1461800 712100c8000,0 14500,500 21900,100 3400,-200 3000,600 3000,-7300 0,-3400 -300,-7700 0,-10900 300,-3300 600,-5600 600,-9800l1700 -28500c400,-900 400,-700 700,-1100 600,2700 300,4200 800,7100l1200 7200c600,4500 1300,9500 2000,14400l1700 14700c700,4300 2100,9700 2200,14100l24200 0c2100,0 2000,-1700 2800,-5700 600,-3000 1000,-4500 1600,-7400 1800,-8500 5600,-21800 7000,-29500 900,-5100 2800,-10200 3200,-14900 1400,2000 600,8600 600,13300l-1800 44200 26000 0c0,-16400 700,-30800 600,-47200l1900 -46700 -39400 0 -10200 46200c-500,2000 -200,1600 -1400,2900 0,-8100 -1400,-17200 -2600,-25300 -500,-3300 -800,-9300 -1400,-12500 -1300,-6500 -600,-11300 -3200,-11300l-37000 0c0,4000 -500,6900 -600,11500 0,3000 -400,3200 -600,5500 -200,2100 100,4500 0,6700l-1700 23700c-300,1900 -100,4000 -100,5900l-2800 28700c-500,3400 -900,8700 -900,11900z"/>
   <path class="fil0" d="M1088500 621800c0,3900 0,7700 0,11600 0,4700 -600,7300 -600,11400 0,8700 -700,15400 -600,23700l-2200 34200c-700,5000 -1800,9400 1000,9400l29700 0c0,-11800 1200,-23800 1200,-35700l24200 0c0,11400 -600,19300 -1200,29700 -400,8100 -6000,6000 31500,6000 0,-8900 -300,-27300 500,-34600 400,-2900 100,-7200 100,-10200 0,-4400 600,-6600 700,-10300 0,-6900 400,-13100 500,-20600 100,-6900 2900,-18200 -600,-18200l-29000 0c0,10500 -1300,21700 -1300,32100l-24200 600c0,-11000 1200,-21500 1200,-32700l-30900 0 0 3600z"/>
   <path class="fil0" d="M1343000 632100c0,14700 -1000,27900 -1100,41900l-1300 20000c-200,3100 -400,6700 -800,10000 -200,1500 -400,3300 -600,5000 -200,1200 -1100,3100 1400,3100l26700 0c2900,0 1800,-4900 1800,-10300 0,-4000 -100,-8100 0,-12100 0,-3900 600,-6800 600,-11500l1800 -35800c0,0 18800,-2400 18800,4900 0,4900 -300,12100 -10300,12100l-6700 0 8100 39200c600,3000 1800,11400 2900,13500l31500 0 -11000 -38400c-200,-1900 2100,-3200 5500,-5800 3400,-2600 6900,-8300 8000,-12700 1900,-8400 2700,-11000 0,-20800 -2900,-11000 -15000,-16200 -24900,-16200l-50400 0 0 13900z"/>
   <path class="fil0" d="M1220600 710300l0 1800 69100 0c0,-8200 1200,-17000 1200,-25400 -9800,0 -31200,2300 -38800,600l800 -9700 31400 0 1300 -21900c-100,-5100 -700,-3000 -3800,-3000l-27800 0 600 -9700 26600 0c4800,0 6900,700 11500,700l1300 -25500 -69100 0 -600 35200c0,8300 -1900,26500 -1900,34500 100,8900 -1800,17200 -1800,22400z"/>
   <path class="fil0" d="M310300 570300l49700 0 0 174600c0,1400 -400,1800 -1800,1800 -8900,0 -41700,800 -47900,-600l0 -175800zm-8500 -4200l0 184800c0,2900 1400,4300 4300,4300l59400 0c1400,0 1700,-1000 3000,-1900 0,-4600 600,-6700 600,-11500l0 -173900c0,-2700 -1200,-6100 -3600,-6100l-60700 0c-1900,0 -3000,2200 -3000,4300z"/>
   <path class="fil0" d="M968500 643700l23000 -800 -1200 40200c100,6200 -2400,26300 -2400,29000l30900 0c1000,-4400 600,-19700 600,-26000 0,-3900 500,-5300 600,-8500 100,-3000 -100,-6100 0,-9100l1800 -25500c34100,0 21600,5700 24400,-18100 900,-7900 2500,-6700 -11000,-6700l-57100 -400c-11200,-200 -10200,700 -10300,3300 -100,1500 100,3500 100,5000 0,3100 100,6600 0,9700 0,1900 -1700,7900 600,7900z"/>
   <path class="fil0" d="M851500 620600l10200 45000c500,1900 1200,4600 1300,6500l-23600 0 8700 -38500c600,-2400 1100,-4700 1500,-6500 500,-2800 500,-3700 1700,-6100 0,-100 100,-300 200,-400zm-21800 56400c0,2300 1800,3600 4300,3600 7100,0 33200,1200 38100,-1200 1800,-7500 -3500,-20400 -4700,-28600 -2000,-12500 -8200,-34300 -10800,-48000 -400,-2200 -1000,-7800 -5200,-8100 -4900,-300 -5900,10300 -7800,18000 -300,1500 -800,3700 -1000,5100 -1500,8700 -12900,55800 -12900,59200z"/>
   <path class="fil0" d="M1661200 558800c0,-18200 16300,-31600 30900,-30900 6100,200 12100,1500 17400,5000 1400,900 3400,2400 4600,3400 9100,7600 12400,23900 6600,36500 -4500,9700 -9300,11700 -16200,15300 -3200,1600 -8600,2700 -12700,2400 -5100,-300 -8600,-1100 -12300,-2700 -1700,-700 -3400,-1800 -5100,-2800 -8500,-5300 -13200,-15900 -13200,-26200zm-6600 1200c0,5200 2000,10900 3600,14600 3700,8200 9900,15100 18200,18700 15700,6700 30300,3800 41900,-6500 2600,-2200 6500,-7500 7900,-10900 2500,-6100 2700,-6900 3800,-15000 1300,-9700 -4800,-22100 -9500,-26800 -26500,-26700 -65900,-6900 -65900,25900z"/>
   <path class="fil0" d="M667900 647900c-5600,0 -10500,500 -15200,-600l0 -27900 18200 0c10600,0 19000,14400 8700,24400 -2800,2800 -6400,4100 -11700,4100zm-24300 -32100l0 34500c0,3600 1300,6100 4900,6100 10900,0 25400,1600 32500,-2700 11300,-6800 15200,-18800 9300,-30700 -1800,-3600 -2200,-3800 -5000,-6500 -1600,-1600 -4600,-3600 -6900,-4600 -5600,-2400 -22200,-1600 -29300,-1600 -3000,0 -5500,2500 -5500,5500z"/>
   <path class="fil0" d="M1460600 761200c2800,0 7300,700 8600,-1100 2800,-3800 -500,-9500 5500,-14500 1300,-1000 1500,-900 2700,-2100 1600,-1500 1100,-1700 3200,-2300l10300 20000 9700 0 -10200 -18900c-1200,-2500 -2300,-4400 -3700,-6500 2400,-3700 15300,-12700 18200,-17000 -18300,0 -9300,200 -23600,11600 -3400,2700 -4600,4800 -6700,5400 600,-2800 1200,-5400 1800,-8500 600,-2500 1600,-5700 1800,-8500l-9100 0c-200,2900 -1400,7500 -2100,10700l-4300 21100c-700,3400 -1800,7500 -2100,10600z"/>
   <path class="fil0" d="M1358800 737600c200,-2100 800,-4500 1300,-6600 800,-3100 600,-5500 3500,-5500 5500,0 15200,-200 11000,7800 -2900,5500 -12600,5000 -15800,4300zm-4800 -18800l-7900 37600c-1400,5500 -2600,4800 7900,4800l3000 -15700c6600,-1600 10800,900 18600,-2100 5700,-2200 8700,-7700 8700,-14900 0,-13200 -18500,-9700 -30300,-9700z"/>
   <path class="fil0" d="M1686100 557600l-3700 -600c0,-12100 -1300,-12900 4800,-12100 7200,1000 12800,-1000 12800,7200 0,1900 -1800,4100 -5000,4700 -3200,500 -5600,800 -8900,800zm-10300 -16400l0 38800 6600 0 0 -17000c5400,0 9600,-800 13800,6900 1900,3600 3800,6700 5600,10100l7900 0 -9200 -14400c-1500,-1700 -3100,-2300 -4100,-3800 11700,-900 14700,-16300 4900,-20600 -4900,-2100 -17400,-1800 -23700,-1800 -1400,0 -1800,400 -1800,1800z"/>
   <path class="fil0" d="M1424300 755200c-8900,0 -7400,-9200 -4300,-15200 2600,-5000 8900,-5200 11400,-1700 3000,4200 -200,16900 -7100,16900zm-15200 -6700c0,8500 6100,13300 14500,13300 20600,0 24200,-32100 3700,-32100 -4800,0 -4500,0 -9000,1900 -5900,2400 -9200,9400 -9200,16900z"/>
   <path class="fil0" d="M1510900 730300l-4800 0c-400,1800 -1100,4200 -1200,6100l4200 0c0,2600 -600,4300 -1100,6100 -600,2200 -600,4000 -1100,6200 -500,2200 -1000,3800 -1300,6000 -500,2900 -1300,3800 -1300,6500l8400 0c500,-5900 4400,-18800 4900,-24800l6100 0c400,-1800 1000,-4200 1200,-6100l-5500 0c0,-8700 3900,-5500 7900,-5400 3600,-7700 -1600,-6700 -9700,-6700 -800,0 -2100,900 -2800,1400 -2500,2000 -3900,7300 -3900,10700z"/>
   <path class="fil0" d="M1525500 736400l3600 0c-200,8600 -11700,29800 9700,24800 100,-2700 600,-2800 600,-6000 -4000,300 -2000,1000 -5400,-1200 1000,-4500 2100,-9000 2900,-13500 1000,-5200 300,-3300 4200,-4200 2000,-400 1600,200 2300,-2000 400,-1500 300,-2400 300,-4000l-4900 0c800,-3300 1800,-5600 1800,-9700 -2000,500 -3300,1300 -4900,2300 -2200,1300 -3400,1300 -4300,3700 -2000,5800 900,2000 -3900,3900 -1100,400 -2000,-200 -2000,5900z"/>
   <path class="fil0" d="M1397600 735200l700 -4900c-11700,0 -6600,-800 -10600,14900 -1300,4900 -3000,10900 -3400,16000l7800 0c2900,-5900 2100,-17000 7700,-22000 2500,-2100 3800,-2200 8100,-2200 500,-2300 900,-2600 1700,-4500 1300,-3100 -1000,-2800 -3500,-2800 -4000,0 -6000,3800 -8500,5500z"/>
   <path class="fil0" d="M940600 603000c3500,800 800,0 5500,0 6300,0 4800,7100 4800,-29600 -11800,0 -10400,-1100 -10300,6000l0 23600z"/>
   <path class="fil0" d="M957000 575200c0,6800 -800,22700 600,28400 6700,-1500 5700,400 9700,-600l0 -23600c100,-7000 1300,-6000 -8500,-6000 -1400,0 -1800,400 -1800,1800z"/>
   <path class="fil0" d="M924900 601800c0,2800 1700,1200 3600,1200 2900,0 6100,2000 6100,-1200l0 -28400 -9700 0 0 28400z"/>
   <path class="fil0" d="M1309100 749700l15800 0c2300,-10000 4900,-7900 -14600,-7900 -200,2600 -1100,5200 -1200,7900z"/>
   <path class="fil0" d="M1544900 761200l6600 0c100,-3400 1200,-3300 1200,-6600 0,-3000 -2300,-1300 -4200,-1300 -3000,0 -3400,-1800 -4400,2400 -400,2000 -1900,5500 800,5500z"/>
  </g>
 </g>
</svg>
