<svg xmlns="http://www.w3.org/2000/svg" width="38.298" height="38.298" viewBox="0 0 38.298 38.298">
    <g id="Group_23" data-name="Group 23" transform="translate(-300 -6813.026)">
        <path id="Icon_feather-phone" data-name="Icon feather-phone"
              d="M16.716,13.164v2.044a1.362,1.362,0,0,1-1.485,1.362,13.481,13.481,0,0,1-5.879-2.091,13.284,13.284,0,0,1-4.087-4.087A13.481,13.481,0,0,1,3.173,4.485,1.362,1.362,0,0,1,4.529,3H6.573A1.362,1.362,0,0,1,7.935,4.172a8.747,8.747,0,0,0,.477,1.914,1.362,1.362,0,0,1-.307,1.437l-.865.865a10.9,10.9,0,0,0,4.087,4.087l.865-.865A1.362,1.362,0,0,1,13.63,11.3a8.747,8.747,0,0,0,1.914.477,1.362,1.362,0,0,1,1.172,1.383Z"
              transform="translate(309.207 6822.388)" fill="none" stroke="#fff" stroke-linecap="round"
              stroke-linejoin="round" stroke-width="2"/>
    </g>
</svg>
